<svg width="442" height="269" viewBox="0 0 442 269" fill="none" xmlns="http://www.w3.org/2000/svg">
<path d="M19.9997 268.372C8.95397 268.372 -0.000334128 259.418 -0.000332196 248.372L-0.000320679 182.501L27.1872 137.797C28.6221 135.438 28.6221 131.612 27.1872 129.253L-0.000303553 84.5485L-0.000292267 19.9999C-0.000290335 8.95421 8.95405 -0.000106202 19.9997 -0.000104271L394 -3.8879e-05C405.045 -3.69477e-05 414 8.95425 414 19.9999L414 248.372C414 259.418 405.045 268.372 394 268.372L19.9997 268.372Z" fill="#969AF7"/>
<path d="M19.9997 268.372C8.95397 268.372 -0.000334128 259.418 -0.000332196 248.372L-0.000320679 182.501L27.1872 137.797C28.6221 135.438 28.6221 131.612 27.1872 129.253L-0.000303553 84.5485L-0.000292267 19.9999C-0.000290335 8.95421 8.95405 -0.000106202 19.9997 -0.000104271L394 -3.8879e-05C405.045 -3.69477e-05 414 8.95425 414 19.9999L414 248.372C414 259.418 405.045 268.372 394 268.372L19.9997 268.372Z" fill="url(#paint0_linear_2112_147)"/>
<path d="M414 166C414 169 414 175.4 414 177.5L440.668 137.626C442.206 135.332 442.206 131.614 440.668 129.321L414 89.5C414 87 414 87 414 89.5L414 118.5C414 121.5 414 128.772 414 132L414 166Z" fill="#969AF7"/>
<path d="M414 166C414 169 414 175.4 414 177.5L440.668 137.626C442.206 135.332 442.206 131.614 440.668 129.321L414 89.5C414 87 414 87 414 89.5L414 118.5C414 121.5 414 128.772 414 132L414 166Z" fill="url(#paint1_linear_2112_147)"/>
<defs>
<linearGradient id="paint0_linear_2112_147" x1="495.574" y1="289.389" x2="-0.336159" y2="214.75" gradientUnits="userSpaceOnUse">
<stop stop-color="#0926C0"/>
<stop offset="0.884" stop-color="#041080"/>
</linearGradient>
<linearGradient id="paint1_linear_2112_147" x1="495.574" y1="289.389" x2="-0.336159" y2="214.75" gradientUnits="userSpaceOnUse">
<stop stop-color="#0926C0"/>
<stop offset="0.884" stop-color="#041080"/>
</linearGradient>
</defs>
</svg>
