<svg width="440" height="298" viewBox="0 0 440 298" fill="none" xmlns="http://www.w3.org/2000/svg">
<path d="M21.3075 0C9.5397 0 0 8.94798 0 19.9859V84.9222L29.8482 130.903C31.3782 133.26 31.3782 137.081 29.8482 139.438L0 185.419V248.197C0 259.235 9.5397 268.183 21.3075 268.183H220H418.693C430.46 268.183 440 259.235 440 248.197V19.9859C440 8.948 430.46 0 418.693 0H21.3075Z" fill="#969AF7"/>
<path d="M21.3075 0C9.5397 0 0 8.94798 0 19.9859V84.9222L29.8482 130.903C31.3782 133.26 31.3782 137.081 29.8482 139.438L0 185.419V248.197C0 259.235 9.5397 268.183 21.3075 268.183H220H418.693C430.46 268.183 440 259.235 440 248.197V19.9859C440 8.948 430.46 0 418.693 0H21.3075Z" fill="url(#paint0_linear_2112_89)"/>
<path d="M185.908 268.183H220H258.354L225.43 296.638C223.252 298.493 219.766 298.447 217.644 296.536L185.908 268.183Z" fill="#969AF7"/>
<path d="M185.908 268.183H220H258.354L225.43 296.638C223.252 298.493 219.766 298.447 217.644 296.536L185.908 268.183Z" fill="url(#paint1_linear_2112_89)"/>
<defs>
<linearGradient id="paint0_linear_2112_89" x1="-53.5312" y1="-23.3374" x2="442.484" y2="43.6179" gradientUnits="userSpaceOnUse">
<stop offset="0.0851517" stop-color="#041080"/>
<stop offset="1" stop-color="#0926C0"/>
</linearGradient>
<linearGradient id="paint1_linear_2112_89" x1="-53.5312" y1="-23.3374" x2="442.484" y2="43.6179" gradientUnits="userSpaceOnUse">
<stop offset="0.0851517" stop-color="#041080"/>
<stop offset="1" stop-color="#0926C0"/>
</linearGradient>
</defs>
</svg>
