<svg width="439" height="299" viewBox="0 0 439 299" fill="none" xmlns="http://www.w3.org/2000/svg">
<path d="M21.2591 0C9.51801 0 0 8.95429 0 20V84.9821L29.7804 130.995C31.3069 133.354 31.3069 137.178 29.7804 139.537L0 185.55V248.372C0 259.418 9.51801 268.372 21.2591 268.372H219.5H417.741C429.482 268.372 439 259.418 439 248.372V20C439 8.9543 429.482 0 417.741 0H21.2591Z" fill="#969AF7"/>
<path d="M21.2591 0C9.51801 0 0 8.95429 0 20V84.9821L29.7804 130.995C31.3069 133.354 31.3069 137.178 29.7804 139.537L0 185.55V248.372C0 259.418 9.51801 268.372 21.2591 268.372H219.5H417.741C429.482 268.372 439 259.418 439 248.372V20C439 8.9543 429.482 0 417.741 0H21.2591Z" fill="url(#paint0_linear_2112_88)"/>
<path d="M185.485 268.372H219.5H257.766L224.917 296.848C222.744 298.704 219.266 298.658 217.149 296.745L185.485 268.372Z" fill="#969AF7"/>
<path d="M185.485 268.372H219.5H257.766L224.917 296.848C222.744 298.704 219.266 298.658 217.149 296.745L185.485 268.372Z" fill="url(#paint1_linear_2112_88)"/>
<defs>
<linearGradient id="paint0_linear_2112_88" x1="-53.4095" y1="-23.3538" x2="441.531" y2="43.2576" gradientUnits="userSpaceOnUse">
<stop offset="0.0851517" stop-color="#041080"/>
<stop offset="1" stop-color="#0926C0"/>
</linearGradient>
<linearGradient id="paint1_linear_2112_88" x1="-53.4095" y1="-23.3538" x2="441.531" y2="43.2576" gradientUnits="userSpaceOnUse">
<stop offset="0.0851517" stop-color="#041080"/>
<stop offset="1" stop-color="#0926C0"/>
</linearGradient>
</defs>
</svg>
