<svg width="440" height="269" viewBox="0 0 440 269" fill="none" xmlns="http://www.w3.org/2000/svg">
<path d="M194.5 0H46.7454C35.6997 0 26.7454 8.95429 26.7454 20V248.372C26.7454 259.418 35.6997 268.372 46.7454 268.372H419.745C430.791 268.372 439.745 259.418 439.745 248.372V20C439.745 8.9543 430.791 0 419.745 0H252L225.566 20.7809C223.601 22.7204 220.329 22.8109 218.259 20.983L194.5 0Z" fill="#969AF7"/>
<path d="M194.5 0H46.7454C35.6997 0 26.7454 8.95429 26.7454 20V248.372C26.7454 259.418 35.6997 268.372 46.7454 268.372H419.745C430.791 268.372 439.745 259.418 439.745 248.372V20C439.745 8.9543 430.791 0 419.745 0H252L225.566 20.7809C223.601 22.7204 220.329 22.8109 218.259 20.983L194.5 0Z" fill="url(#paint0_linear_2112_121)"/>
<path d="M26.7454 93C26.7454 90.5 26.7454 90.5 26.7454 93V148.5V177L1.15363 139.051C-0.384545 136.758 -0.384543 133.04 1.15363 130.747L26.7454 93Z" fill="#969AF7"/>
<path d="M26.7454 93C26.7454 90.5 26.7454 90.5 26.7454 93V148.5V177L1.15363 139.051C-0.384545 136.758 -0.384543 133.04 1.15363 130.747L26.7454 93Z" fill="url(#paint1_linear_2112_121)"/>
<defs>
<linearGradient id="paint0_linear_2112_121" x1="-53.5002" y1="-21.0171" x2="440.182" y2="52.9375" gradientUnits="userSpaceOnUse">
<stop offset="0.0851517" stop-color="#041080"/>
<stop offset="1" stop-color="#0926C0"/>
</linearGradient>
<linearGradient id="paint1_linear_2112_121" x1="-53.5002" y1="-21.0171" x2="440.182" y2="52.9375" gradientUnits="userSpaceOnUse">
<stop offset="0.0851517" stop-color="#041080"/>
<stop offset="1" stop-color="#0926C0"/>
</linearGradient>
</defs>
</svg>
