<svg width="440" height="269" viewBox="0 0 440 269" fill="none" xmlns="http://www.w3.org/2000/svg">
<path d="M209.334 0H46.7454C35.6997 0 26.7454 8.95429 26.7454 20V248.372C26.7454 259.418 35.6997 268.372 46.7454 268.372H419.745C430.791 268.372 439.745 259.418 439.745 248.372V20C439.745 8.9543 430.791 0 419.745 0H261.461L240.4 20.7809C238.435 22.7204 235.163 22.8109 233.094 20.983L209.334 0Z" fill="#969AF7"/>
<path d="M209.334 0H46.7454C35.6997 0 26.7454 8.95429 26.7454 20V248.372C26.7454 259.418 35.6997 268.372 46.7454 268.372H419.745C430.791 268.372 439.745 259.418 439.745 248.372V20C439.745 8.9543 430.791 0 419.745 0H261.461L240.4 20.7809C238.435 22.7204 235.163 22.8109 233.094 20.983L209.334 0Z" fill="url(#paint0_linear_2112_121)"/>
<path d="M44.6281 65.9281C46.1662 63.6347 48.6601 63.6347 50.1983 65.9281L93.6727 130.747C95.2109 133.04 95.2109 136.758 93.6727 139.051L50.1983 203.87C48.6601 206.163 46.1662 206.163 44.628 203.87L1.15363 139.051C-0.384545 136.758 -0.384543 133.04 1.15363 130.747L44.6281 65.9281Z" fill="#969AF7"/>
<path d="M44.6281 65.9281C46.1662 63.6347 48.6601 63.6347 50.1983 65.9281L93.6727 130.747C95.2109 133.04 95.2109 136.758 93.6727 139.051L50.1983 203.87C48.6601 206.163 46.1662 206.163 44.628 203.87L1.15363 139.051C-0.384545 136.758 -0.384543 133.04 1.15363 130.747L44.6281 65.9281Z" fill="url(#paint1_linear_2112_121)"/>
<defs>
<linearGradient id="paint0_linear_2112_121" x1="-53.5002" y1="-21.0171" x2="440.182" y2="52.9375" gradientUnits="userSpaceOnUse">
<stop offset="0.0851517" stop-color="#041080"/>
<stop offset="1" stop-color="#0926C0"/>
</linearGradient>
<linearGradient id="paint1_linear_2112_121" x1="-53.5002" y1="-21.0171" x2="440.182" y2="52.9375" gradientUnits="userSpaceOnUse">
<stop offset="0.0851517" stop-color="#041080"/>
<stop offset="1" stop-color="#0926C0"/>
</linearGradient>
</defs>
</svg>
