<svg width="440" height="268" viewBox="0 0 440 268" fill="none" xmlns="http://www.w3.org/2000/svg">
<path d="M418.693 0C430.46 0 440 8.94187 440 19.9723V84.439L410.184 130.394C408.655 132.75 408.655 136.57 410.184 138.926L440 184.881V248.028C440 259.058 430.46 268 418.693 268H21.3075C9.53971 268 0 259.058 0 248.028V19.9723C0 8.94189 9.53971 0 21.3075 0H418.693Z" fill="#969AF7"/>
<path d="M418.693 0C430.46 0 440 8.94187 440 19.9723V84.439L410.184 130.394C408.655 132.75 408.655 136.57 410.184 138.926L440 184.881V248.028C440 259.058 430.46 268 418.693 268H21.3075C9.53971 268 0 259.058 0 248.028V19.9723C0 8.94189 9.53971 0 21.3075 0H418.693Z" fill="url(#paint0_linear_2112_120)"/>
<defs>
<linearGradient id="paint0_linear_2112_120" x1="493.531" y1="-20.988" x2="-0.394318" y2="53.1486" gradientUnits="userSpaceOnUse">
<stop offset="0.0851517" stop-color="#041080"/>
<stop offset="1" stop-color="#0926C0"/>
</linearGradient>
</defs>
</svg>
