<svg width="413" height="268" viewBox="0 0 413 268" fill="none" xmlns="http://www.w3.org/2000/svg">
<path d="M393 0C404.046 0 413 8.94187 413 19.9723V84.439L385.013 130.394C383.578 132.75 383.578 136.57 385.013 138.926L413 184.881V248.028C413 259.058 404.046 268 393 268H20C8.95432 268 0 259.058 0 248.028V19.9723C0 8.94189 8.95432 0 20 0H393Z" fill="#969AF7"/>
<path d="M393 0C404.046 0 413 8.94187 413 19.9723V84.439L385.013 130.394C383.578 132.75 383.578 136.57 385.013 138.926L413 184.881V248.028C413 259.058 404.046 268 393 268H20C8.95432 268 0 259.058 0 248.028V19.9723C0 8.94189 8.95432 0 20 0H393Z" fill="url(#paint0_linear_2112_120)"/>
<defs>
<linearGradient id="paint0_linear_2112_120" x1="463.246" y1="-20.988" x2="-1.58847" y2="44.5009" gradientUnits="userSpaceOnUse">
<stop offset="0.0851517" stop-color="#041080"/>
<stop offset="1" stop-color="#0926C0"/>
</linearGradient>
</defs>
</svg>
