<svg width="1920" height="1087" viewBox="0 0 1920 1087" fill="none" xmlns="http://www.w3.org/2000/svg">
<path d="M0 1058L4.81203 1057.54L9.62406 1057.09L14.4361 1056.63L19.2481 1056.18L24.0602 1055.72L28.8722 1055.27L33.6842 1054.82L38.4962 1054.37L43.3083 1053.91L48.1203 1053.46L52.9323 1053.01L57.7444 1052.57L62.5564 1052.12L67.3684 1051.67L72.1805 1051.23L76.9925 1050.79L81.8045 1050.35L86.6165 1049.91L91.4286 1049.47L96.2406 1049.04L101.053 1048.61L105.865 1048.18L110.677 1047.75L115.489 1047.32L120.301 1046.9L125.113 1046.48L129.925 1046.07L134.737 1045.65L139.549 1045.24L144.361 1044.83L149.173 1044.43L153.985 1044.03L158.797 1043.63L163.609 1043.24L168.421 1042.85L173.233 1042.46L178.045 1042.08L182.857 1041.7L187.669 1041.32L192.481 1040.95L197.293 1040.59L202.105 1040.23L206.917 1039.87L211.729 1039.51L216.541 1039.17L221.353 1038.82L226.165 1038.48L230.977 1038.15L235.789 1037.82L240.601 1037.49L245.414 1037.17L250.226 1036.86L255.038 1036.55L259.85 1036.25L264.662 1035.95L269.474 1035.66L274.286 1035.37L279.098 1035.09L283.91 1034.81L288.722 1034.54L293.534 1034.27L298.346 1034.01L303.158 1033.76L307.97 1033.51L312.782 1033.27L317.594 1033.04L322.406 1032.81L327.218 1032.59L332.03 1032.37L336.842 1032.16L341.654 1031.96L346.466 1031.76L351.278 1031.57L356.09 1031.39L360.902 1031.21L365.714 1031.04L370.526 1030.87L375.338 1030.71L380.15 1030.56L384.962 1030.42L389.774 1030.28L394.586 1030.15L399.398 1030.03L404.211 1029.91L409.023 1029.8L413.835 1029.7L418.647 1029.6L423.459 1029.51L428.271 1029.43L433.083 1029.36L437.895 1029.29L442.707 1029.23L447.519 1029.18L452.331 1029.13L457.143 1029.09L461.955 1029.06L466.767 1029.03L471.579 1029.01L476.391 1029L481.203 1029L486.015 1029L490.827 1029.01L495.639 1029.03L500.451 1029.06L505.263 1029.09L510.075 1029.13L514.887 1029.18L519.699 1029.23L524.511 1029.29L529.323 1029.36L534.135 1029.43L538.947 1029.51L543.759 1029.6L548.571 1029.7L553.383 1029.8L558.195 1029.91L563.008 1030.03L567.82 1030.15L572.632 1030.28L577.444 1030.42L582.256 1030.56L587.068 1030.71L591.88 1030.87L596.692 1031.04L601.504 1031.21L606.316 1031.39L611.128 1031.57L615.94 1031.76L620.752 1031.96L625.564 1032.16L630.376 1032.37L635.188 1032.59L640 1032.81L644.812 1033.04L649.624 1033.27L654.436 1033.51L659.248 1033.76L664.06 1034.01L668.872 1034.27L673.684 1034.54L678.496 1034.81L683.308 1035.09L688.12 1035.37L692.932 1035.66L697.744 1035.95L702.556 1036.25L707.368 1036.55L712.18 1036.86L716.992 1037.17L721.805 1037.49L726.617 1037.82L731.429 1038.15L736.241 1038.48L741.053 1038.82L745.865 1039.17L750.677 1039.51L755.489 1039.87L760.301 1040.23L765.113 1040.59L769.925 1040.95L774.737 1041.32L779.549 1041.7L784.361 1042.08L789.173 1042.46L793.985 1042.85L798.797 1043.24L803.609 1043.63L808.421 1044.03L813.233 1044.43L818.045 1044.83L822.857 1045.24L827.669 1045.65L832.481 1046.07L837.293 1046.48L842.105 1046.9L846.917 1047.32L851.729 1047.75L856.541 1048.18L861.353 1048.61L866.165 1049.04L870.977 1049.47L875.789 1049.91L880.601 1050.35L885.414 1050.79L890.226 1051.23L895.038 1051.67L899.85 1052.12L904.662 1052.57L909.474 1053.01L914.286 1053.46L919.098 1053.91L923.91 1054.37L928.722 1054.82L933.534 1055.27L938.346 1055.72L943.158 1056.18L947.97 1056.63L952.782 1057.09L957.594 1057.54L962.406 1058L967.218 1058.46L972.03 1058.91L976.842 1059.37L981.654 1059.82L986.466 1060.28L991.278 1060.73L996.09 1061.18L1000.9 1061.63L1005.71 1062.09L1010.53 1062.54L1015.34 1062.99L1020.15 1063.43L1024.96 1063.88L1029.77 1064.33L1034.59 1064.77L1039.4 1065.21L1044.21 1065.65L1049.02 1066.09L1053.83 1066.53L1058.65 1066.96L1063.46 1067.39L1068.27 1067.82L1073.08 1068.25L1077.89 1068.68L1082.71 1069.1L1087.52 1069.52L1092.33 1069.93L1097.14 1070.35L1101.95 1070.76L1106.77 1071.17L1111.58 1071.57L1116.39 1071.97L1121.2 1072.37L1126.02 1072.76L1130.83 1073.15L1135.64 1073.54L1140.45 1073.92L1145.26 1074.3L1150.08 1074.68L1154.89 1075.05L1159.7 1075.41L1164.51 1075.77L1169.32 1076.13L1174.14 1076.49L1178.95 1076.83L1183.76 1077.18L1188.57 1077.52L1193.38 1077.85L1198.2 1078.18L1203.01 1078.51L1207.82 1078.83L1212.63 1079.14L1217.44 1079.45L1222.26 1079.75L1227.07 1080.05L1231.88 1080.34L1236.69 1080.63L1241.5 1080.91L1246.32 1081.19L1251.13 1081.46L1255.94 1081.73L1260.75 1081.99L1265.56 1082.24L1270.38 1082.49L1275.19 1082.73L1280 1082.96L1284.81 1083.19L1289.62 1083.41L1294.44 1083.63L1299.25 1083.84L1304.06 1084.04L1308.87 1084.24L1313.68 1084.43L1318.5 1084.61L1323.31 1084.79L1328.12 1084.96L1332.93 1085.13L1337.74 1085.29L1342.56 1085.44L1347.37 1085.58L1352.18 1085.72L1356.99 1085.85L1361.8 1085.97L1366.62 1086.09L1371.43 1086.2L1376.24 1086.3L1381.05 1086.4L1385.86 1086.49L1390.68 1086.57L1395.49 1086.64L1400.3 1086.71L1405.11 1086.77L1409.92 1086.82L1414.74 1086.87L1419.55 1086.91L1424.36 1086.94L1429.17 1086.97L1433.98 1086.99L1438.8 1087L1443.61 1087L1448.42 1087L1453.23 1086.99L1458.05 1086.97L1462.86 1086.94L1467.67 1086.91L1472.48 1086.87L1477.29 1086.82L1482.11 1086.77L1486.92 1086.71L1491.73 1086.64L1496.54 1086.57L1501.35 1086.49L1506.17 1086.4L1510.98 1086.3L1515.79 1086.2L1520.6 1086.09L1525.41 1085.97L1530.23 1085.85L1535.04 1085.72L1539.85 1085.58L1544.66 1085.44L1549.47 1085.29L1554.29 1085.13L1559.1 1084.96L1563.91 1084.79L1568.72 1084.61L1573.53 1084.43L1578.35 1084.24L1583.16 1084.04L1587.97 1083.84L1592.78 1083.63L1597.59 1083.41L1602.41 1083.19L1607.22 1082.96L1612.03 1082.73L1616.84 1082.49L1621.65 1082.24L1626.47 1081.99L1631.28 1081.73L1636.09 1081.46L1640.9 1081.19L1645.71 1080.91L1650.53 1080.63L1655.34 1080.34L1660.15 1080.05L1664.96 1079.75L1669.77 1079.45L1674.59 1079.14L1679.4 1078.83L1684.21 1078.51L1689.02 1078.18L1693.83 1077.85L1698.65 1077.52L1703.46 1077.18L1708.27 1076.83L1713.08 1076.49L1717.89 1076.13L1722.71 1075.77L1727.52 1075.41L1732.33 1075.05L1737.14 1074.68L1741.95 1074.3L1746.77 1073.92L1751.58 1073.54L1756.39 1073.15L1761.2 1072.76L1766.01 1072.37L1770.83 1071.97L1775.64 1071.57L1780.45 1071.17L1785.26 1070.76L1790.08 1070.35L1794.89 1069.93L1799.7 1069.52L1804.51 1069.1L1809.32 1068.68L1814.14 1068.25L1818.95 1067.82L1823.76 1067.39L1828.57 1066.96L1833.38 1066.53L1838.2 1066.09L1843.01 1065.65L1847.82 1065.21L1852.63 1064.77L1857.44 1064.33L1862.26 1063.88L1867.07 1063.43L1871.88 1062.99L1876.69 1062.54L1881.5 1062.09L1886.32 1061.63L1891.13 1061.18L1895.94 1060.73L1900.75 1060.28L1905.56 1059.82L1910.38 1059.37L1915.19 1058.91L1920 1058.46V8L0 0V1058Z" fill="#F2F2F4"/>
</svg>
